<svg width="123" height="136" viewBox="0 0 123 136" fill="none" xmlns="http://www.w3.org/2000/svg">
<path d="M121.605 33.9921H121.546C120.699 32.5563 119.502 31.3589 118.066 30.512L66.1599 1.19679C64.7429 0.411827 63.1496 0 61.5297 0C59.9097 0 58.3164 0.411827 56.8994 1.19679L4.99313 30.3941C3.5275 31.2221 2.30663 32.4226 1.45407 33.8741C1.45407 33.8819 1.45255 33.8895 1.44958 33.8967C1.44662 33.9039 1.44227 33.9104 1.4368 33.9158C1.43132 33.9213 1.42482 33.9257 1.41766 33.9286C1.4105 33.9316 1.40283 33.9331 1.39509 33.9331V34.0511C0.569264 35.4426 0.140837 37.0339 0.156416 38.6519V96.8105C0.159398 98.4919 0.608742 100.142 1.45853 101.593C2.30831 103.044 3.52807 104.243 4.99313 105.068L56.8994 134.266C58.2062 134.978 59.659 135.382 61.1463 135.445H61.972C63.4391 135.373 64.8709 134.97 66.1599 134.266L118.066 105.068C119.516 104.231 120.721 103.028 121.559 101.578C122.398 100.129 122.841 98.4848 122.844 96.8105V38.6519C122.853 37.0161 122.425 35.4076 121.605 33.9921ZM61.5002 9.4546L108.57 35.8796L90.4615 46.1429L42.9201 19.8948L61.5002 9.4546ZM62.031 62.3046L14.5486 35.8796L33.2467 25.3804L80.847 51.6284L62.031 62.3046ZM9.59391 43.9015L57.3123 70.5034L56.8404 123.412L9.59391 96.8105V43.9015ZM66.2779 123.353L66.7498 70.5034L85.6838 59.7093V82.1823C85.6838 83.4338 86.1809 84.6341 87.0658 85.519C87.9508 86.4039 89.151 86.9011 90.4025 86.9011C91.654 86.9011 92.8542 86.4039 93.7392 85.519C94.6241 84.6341 95.1213 83.4338 95.1213 82.1823V54.3417L113.406 43.9605V96.8105L66.2779 123.353Z" fill="#2E6E9F"/>
</svg>
