<svg width="124" height="124" viewBox="0 0 124 124" fill="none" xmlns="http://www.w3.org/2000/svg">
<path d="M62.3441 0.222656C45.3675 0.222656 30.8734 6.22852 18.8616 18.2402C6.84991 30.252 0.844055 44.7461 0.844055 61.7227C0.844055 78.6992 6.84991 93.1934 18.8616 105.205C30.8734 117.217 45.3675 123.223 62.3441 123.223C79.3206 123.223 93.8148 117.217 105.826 105.205C117.838 93.1934 123.844 78.6992 123.844 61.7227C123.844 44.7461 117.838 30.252 105.826 18.2402C93.8148 6.22852 79.3206 0.222656 62.3441 0.222656ZM27.0296 79.7402C30.3929 88.2285 32.0745 95.916 32.0745 102.803C25.6683 98.3184 20.5833 92.4326 16.8196 85.1455C13.056 77.8584 11.1741 70.0508 11.1741 61.7227C11.1741 45.2266 17.6605 31.9336 30.6331 21.8438C33.5159 24.0859 36.1585 27.0088 38.5609 30.6123C40.9632 34.2158 42.0843 37.6191 41.9241 40.8223C41.2835 45.7871 38.0003 50.6719 32.0745 55.4766C29.0316 58.6797 26.9896 62.4834 25.9485 66.8877C24.9075 71.292 25.2679 75.5762 27.0296 79.7402ZM113.514 61.7227C113.514 75.8164 108.509 87.8682 98.4993 97.8779C88.4896 107.888 76.4378 112.893 62.3441 112.893C55.2972 112.893 48.6507 111.531 42.4046 108.809C43.2054 98.3984 41.1234 87.5078 36.1585 76.1367C34.3968 70.6914 35.4378 66.3672 39.2816 63.1641C47.2894 55.1562 51.5335 48.0293 52.014 41.7832C52.9749 33.1348 48.8909 24.4062 39.762 15.5977C46.0081 12.2344 53.5355 10.5527 62.3441 10.5527C66.5081 10.5527 70.4319 11.0332 74.1155 11.9941L63.7855 22.3242L60.1819 25.9277L75.0765 40.8223L111.112 45.8672C112.713 51.4727 113.514 56.7578 113.514 61.7227ZM80.3616 31.4531L74.596 25.9277L84.9261 15.5977C93.7347 19.7617 100.701 26.248 105.826 35.0566L80.3616 31.4531ZM65.4671 53.0742L61.3831 59.0801C58.18 64.2051 57.7796 69.3301 60.1819 74.4551L62.3441 79.2598L65.9476 96.5566C66.428 100.24 68.6702 102.643 72.6741 103.764C73.3148 104.084 74.1155 104.244 75.0765 104.244C77.4788 104.244 79.721 103.363 81.803 101.602L87.5687 96.0762L88.0491 95.1152C90.4515 86.1465 93.1741 80.1406 96.2171 77.0977C100.541 74.0547 101.742 68.6094 99.8206 60.7617C98.6995 56.4375 95.7366 53.3145 90.9319 51.3926L78.68 46.3477H77.7191C72.1136 46.3477 68.0296 48.5898 65.4671 53.0742ZM70.0316 64.8457L74.1155 58.5996C74.7562 57.3184 75.7972 56.6777 77.2386 56.6777L87.5687 60.2812C88.8499 60.9219 89.4905 61.5625 89.4905 62.2031C89.8109 63.3242 89.971 65.2461 89.971 67.9688C85.6468 71.1719 81.723 78.459 78.1995 89.8301L75.5569 92.4727L72.6741 76.1367L69.5511 69.8906C68.5901 68.4492 68.7503 66.7676 70.0316 64.8457Z" fill="#2E6E9F"/>
</svg>
