<svg width="29" height="30" viewBox="0 0 29 30" fill="none" xmlns="http://www.w3.org/2000/svg">
<path fill-rule="evenodd" clip-rule="evenodd" d="M14.306 0C10.5415 0 7.11122 1.24344 5.08188 2.25936C4.89853 2.35103 4.72769 2.44104 4.56851 2.52771C4.25348 2.69939 3.98512 2.85941 3.77177 3.00025L6.0803 6.39887L7.16706 6.8314C11.4141 8.97408 17.1096 8.97408 21.3574 6.8314L22.5908 6.19135L24.7744 3.00025C24.322 2.70522 23.8516 2.43884 23.3659 2.20268C21.3474 1.1976 17.9996 0 14.306 0ZM8.93637 3.84699C8.1189 3.69402 7.31151 3.4914 6.51867 3.24027C8.41966 2.39603 11.2532 1.50013 14.3052 1.50013C16.4195 1.50013 18.4188 1.93016 20.0723 2.47521C18.1346 2.74773 16.067 3.21027 14.0968 3.77948C12.5467 4.22785 10.7349 4.17951 8.93637 3.84699ZM22.2375 8.06734L22.0333 8.17068C17.3604 10.5275 11.1632 10.5275 6.49033 8.17068L6.29698 8.07234C-0.721934 15.7738 -6.08071 30 14.306 30C34.691 30 29.2014 15.508 22.2375 8.06734ZM13.4392 15.0012C12.9972 15.0012 12.5732 15.1769 12.2606 15.4894C11.948 15.802 11.7724 16.226 11.7724 16.6681C11.7724 17.1101 11.948 17.5341 12.2606 17.8467C12.5732 18.1593 12.9972 18.3349 13.4392 18.3349V15.0012ZM15.1061 13.3344V12.501H13.4392V13.3344C12.5551 13.3344 11.7072 13.6857 11.082 14.3108C10.4569 14.936 10.1056 15.7839 10.1056 16.6681C10.1056 17.5522 10.4569 18.4001 11.082 19.0253C11.7072 19.6504 12.5551 20.0017 13.4392 20.0017V23.3353C13.0945 23.3354 12.7583 23.2286 12.4768 23.0296C12.1953 22.8307 11.9824 22.5493 11.8674 22.2244C11.7938 22.0159 11.6405 21.8453 11.441 21.7499C11.2416 21.6546 11.0125 21.6424 10.804 21.716C10.5956 21.7896 10.4249 21.943 10.3296 22.1424C10.2343 22.3418 10.222 22.571 10.2957 22.7794C10.5255 23.4294 10.9513 23.9922 11.5143 24.3903C12.0772 24.7883 12.7498 25.0021 13.4392 25.0021V25.8355H15.1061V25.0021C15.9902 25.0021 16.8381 24.6509 17.4633 24.0257C18.0884 23.4005 18.4397 22.5526 18.4397 21.6685C18.4397 20.7843 18.0884 19.9364 17.4633 19.3113C16.8381 18.6861 15.9902 18.3349 15.1061 18.3349V15.0012C15.8311 15.0012 16.4487 15.4638 16.6787 16.1122C16.7128 16.2183 16.7679 16.3164 16.8406 16.4008C16.9133 16.4853 17.0022 16.5543 17.1021 16.6037C17.2019 16.6532 17.3107 16.6821 17.4219 16.6888C17.5332 16.6955 17.6446 16.6799 17.7497 16.6427C17.8547 16.6056 17.9513 16.5478 18.0336 16.4727C18.116 16.3976 18.1824 16.3068 18.229 16.2056C18.2756 16.1044 18.3015 15.9948 18.305 15.8834C18.3086 15.7721 18.2897 15.6611 18.2496 15.5571C18.0198 14.9071 17.594 14.3443 17.031 13.9463C16.4681 13.5482 15.7955 13.3345 15.1061 13.3344ZM15.1061 20.0017V23.3353C15.5481 23.3353 15.9721 23.1597 16.2847 22.8471C16.5972 22.5345 16.7729 22.1105 16.7729 21.6685C16.7729 21.2264 16.5972 20.8024 16.2847 20.4899C15.9721 20.1773 15.5481 20.0017 15.1061 20.0017Z" fill="#2E6E9F"/>
</svg>
