<svg width="31" height="30" viewBox="0 0 31 30" fill="none" xmlns="http://www.w3.org/2000/svg">
<path d="M29.324 0.67603C27.8202 -0.827763 25.3765 0.488056 24.2487 1.6159L17.6696 8.75892L13.1582 6.87918L14.286 5.75133C14.662 5.37538 14.662 4.81146 14.286 4.43551C14.0981 4.05957 13.5341 4.24754 13.1582 4.43551L11.4664 6.12728L8.08289 4.62349L9.02276 3.68362C9.39871 3.30767 9.39871 2.74375 9.02276 2.55577C8.64681 2.17982 8.08289 2.17982 7.70694 2.55577L6.20315 4.05957L5.26328 3.68362C3.75948 2.93172 2.06772 3.11969 0.939871 4.43551L11.8424 15.338L7.51897 19.8494L0.939871 19.4734L0 20.7893L5.8272 24.1728L9.21073 30L10.5266 29.0601L10.1506 22.481L14.85 18.1576L25.7525 29.0601C26.8803 27.9323 27.2563 26.0525 26.5044 24.7367L26.1284 23.7969L27.6322 22.2931C28.0082 21.9171 28.0082 21.3532 27.6322 20.9772C27.2563 20.6013 26.6923 20.6013 26.3164 20.9772L25.3765 21.9171L23.8727 18.3456L25.5645 16.6538C25.9404 16.2779 25.9404 15.714 25.5645 15.338C25.1885 14.9621 24.6246 14.9621 24.4366 15.338L23.3088 16.4659L21.4291 11.9545L28.5721 5.56336C29.6999 4.62349 30.8278 1.99185 29.324 0.67603Z" fill="#2E6E9F"/>
</svg>
