<svg width="20" height="20" viewBox="0 0 20 20" fill="none" xmlns="http://www.w3.org/2000/svg">
<circle cx="10" cy="10" r="9.5" stroke="#E1BBA5"/>
<path d="M15.0566 6.55371C15.0566 7.16602 14.9639 7.71647 14.7783 8.20508C14.599 8.6875 14.3423 9.10807 14.0083 9.4668C13.6805 9.81934 13.2847 10.1348 12.8208 10.4131C12.3631 10.6914 11.8498 10.945 11.2808 11.1738V13.2891H8.10791V10.1812C8.45426 10.0884 8.83773 9.96159 9.2583 9.80078C9.68506 9.63997 10.0592 9.44206 10.3809 9.20703C10.721 8.96582 10.9993 8.68441 11.2158 8.36279C11.4323 8.04118 11.5405 7.66081 11.5405 7.22168C11.5405 6.60938 11.3457 6.16406 10.9561 5.88574C10.5664 5.60742 10.0252 5.46826 9.33252 5.46826C8.81299 5.46826 8.25944 5.58268 7.67188 5.81152C7.09049 6.04036 6.63281 6.26921 6.29883 6.49805H6.02979V3.70557C6.42562 3.53239 7.00391 3.35612 7.76465 3.17676C8.52539 2.9974 9.3418 2.90771 10.2139 2.90771C10.9932 2.90771 11.6797 3.00049 12.2734 3.18604C12.8734 3.3654 13.3836 3.61898 13.8042 3.94678C14.2124 4.27458 14.5216 4.66113 14.7319 5.10645C14.9484 5.54557 15.0566 6.02799 15.0566 6.55371ZM11.5405 17H7.88525V14.5508H11.5405V17Z" fill="#E1BBA5"/>
</svg>
