<svg width="177" height="45" viewBox="0 0 177 45" fill="none" xmlns="http://www.w3.org/2000/svg">
<g opacity="0.7">
<path d="M24.7196 45C36.4691 45 45.994 35.4109 45.994 23.582C45.994 11.7532 36.4691 2.16406 24.7196 2.16406C12.9701 2.16406 3.44525 11.7532 3.44525 23.582C3.44525 35.4109 12.9701 45 24.7196 45Z" fill="#E1BBA5"/>
<path d="M10.1752 4.57079C11.4289 4.57079 12.4452 3.54758 12.4452 2.28539C12.4452 1.02321 11.4289 0 10.1752 0C8.92143 0 7.90509 1.02321 7.90509 2.28539C7.90509 3.54758 8.92143 4.57079 10.1752 4.57079Z" fill="#E1BBA5"/>
</g>
<path d="M62.1958 13.859C61.7037 13.859 61.2918 13.6922 60.9654 13.3585C60.6339 13.0248 60.4682 12.6101 60.4682 12.1197C60.4682 11.6242 60.6339 11.2146 60.9654 10.8809C61.2968 10.5472 61.7087 10.3804 62.1958 10.3804C62.688 10.3804 63.0998 10.5472 63.4263 10.8809C63.7578 11.2146 63.9235 11.6292 63.9235 12.1197C63.9235 12.6152 63.7578 13.0298 63.4263 13.3585C63.0948 13.6922 62.683 13.859 62.1958 13.859ZM53.7433 16.7613H63.3811V32.2332H61.0106V18.6624H53.7433V16.7613Z" fill="#8C3E7D"/>
<path d="M67.5396 30.7466L75.3492 18.6624H67.9865V16.7612H78.1968V18.3388L70.352 30.327H78.3224V32.2281H67.5345V30.7466H67.5396Z" fill="#8C3E7D"/>
<path d="M83.7364 13.859C83.2442 13.859 82.8324 13.6922 82.5059 13.3585C82.1745 13.0248 82.0087 12.6101 82.0087 12.1197C82.0087 11.6242 82.1745 11.2146 82.5059 10.8809C82.8374 10.5472 83.2492 10.3804 83.7364 10.3804C84.2286 10.3804 84.6354 10.5472 84.9668 10.8809C85.2983 11.2146 85.4641 11.6292 85.4641 12.1197C85.4641 12.6152 85.2983 13.0298 84.9668 13.3585C84.6404 13.6922 84.2286 13.859 83.7364 13.859ZM82.5562 16.7613H84.9267V32.2332H82.5562V16.7613Z" fill="#8C3E7D"/>
<path d="M120.966 32.6174C120.153 32.6174 119.46 32.491 118.887 32.2331C118.31 31.9753 117.843 31.6315 117.481 31.2017C117.119 30.7719 116.853 30.2612 116.682 29.6697C116.512 29.0781 116.426 28.4511 116.426 27.7837V16.7612H118.762V27.3337C118.762 28.2994 118.958 29.068 119.354 29.6393C119.751 30.2107 120.469 30.4938 121.514 30.4938C122.091 30.4938 122.634 30.3624 123.146 30.1045C123.658 29.8466 124.105 29.5584 124.492 29.2348C124.879 28.9112 125.19 28.5977 125.436 28.2843C125.682 27.9708 125.848 27.7635 125.933 27.6573V16.7612H128.269V28.9719C128.269 29.6393 128.299 30.2713 128.364 30.873C128.43 31.4747 128.49 31.9247 128.555 32.2281H126.185C126.139 32.0359 126.099 31.7022 126.054 31.227C126.014 30.7567 125.979 30.327 125.959 29.9376C125.788 30.1753 125.552 30.4483 125.255 30.7618C124.959 31.0753 124.598 31.3685 124.186 31.6466C123.769 31.9247 123.292 32.1573 122.759 32.3393C122.222 32.5264 121.624 32.6174 120.966 32.6174Z" fill="#8C3E7D"/>
<path d="M132.714 39.7065C132.307 39.7065 132 39.6913 131.784 39.656C131.569 39.6206 131.388 39.5852 131.242 39.5447L131.563 37.5779C131.669 37.5981 131.8 37.6183 131.95 37.6436C132.101 37.6638 132.367 37.6739 132.749 37.6739C133.281 37.6739 133.748 37.5981 134.14 37.4464C134.537 37.2947 134.883 37.0722 135.18 36.7689C135.476 36.4655 135.737 36.1015 135.963 35.6717C136.189 35.2419 136.405 34.7363 136.621 34.1548L137.359 32.1222L131.563 16.7515H134.19L138.575 29.0936H138.64L142.899 16.7515H145.395L138.866 34.2812C138.61 34.9891 138.323 35.6717 138.002 36.329C137.681 36.9863 137.289 37.5627 136.817 38.0683C136.35 38.5739 135.782 38.9683 135.119 39.2616C134.451 39.5599 133.653 39.7065 132.714 39.7065Z" fill="#8C3E7D"/>
<path d="M147.504 32.5214C146.952 32.5214 146.485 32.3343 146.113 31.9551C145.741 31.5809 145.556 31.1107 145.556 30.5545C145.556 29.9983 145.741 29.5332 146.113 29.1691C146.485 28.8051 146.952 28.623 147.504 28.623C148.062 28.623 148.524 28.8051 148.895 29.1691C149.267 29.5332 149.453 29.9983 149.453 30.5545C149.453 31.1157 149.267 31.5809 148.895 31.9551C148.519 32.3292 148.057 32.5214 147.504 32.5214Z" fill="#8C3E7D"/>
<path d="M153.646 16.7612H155.982V19.1781C156.132 18.9202 156.328 18.632 156.574 18.3084C156.821 17.9848 157.112 17.6814 157.453 17.3882C157.795 17.1 158.187 16.8573 158.624 16.6652C159.06 16.473 159.548 16.377 160.08 16.377C160.547 16.377 160.909 16.4225 161.155 16.5034C161.401 16.5893 161.577 16.655 161.682 16.6955L161.105 18.9505C161.019 18.9101 160.873 18.8545 160.673 18.7888C160.472 18.723 160.165 18.6927 159.759 18.6927C159.181 18.6927 158.669 18.8343 158.222 19.1123C157.775 19.3904 157.388 19.714 157.072 20.0781C156.75 20.4421 156.499 20.7961 156.318 21.1399C156.137 21.4837 156.022 21.7213 155.982 21.8477V32.223H153.646V16.7612Z" fill="#8C3E7D"/>
<path d="M169.416 32.6174C168.603 32.6174 167.91 32.491 167.337 32.2331C166.76 31.9753 166.293 31.6315 165.931 31.2017C165.569 30.7719 165.298 30.2612 165.127 29.6697C164.957 29.0781 164.871 28.4511 164.871 27.7837V16.7612H167.207V27.3337C167.207 28.2994 167.402 29.068 167.799 29.6393C168.196 30.2107 168.914 30.4938 169.959 30.4938C170.536 30.4938 171.079 30.3624 171.591 30.1045C172.103 29.8466 172.55 29.5584 172.937 29.2348C173.324 28.9112 173.635 28.5977 173.881 28.2843C174.127 27.9708 174.293 27.7635 174.378 27.6573V16.7612H176.714V28.9719C176.714 29.6393 176.744 30.2713 176.809 30.873C176.874 31.4747 176.935 31.9247 177 32.2281H174.629C174.584 32.0359 174.544 31.7022 174.499 31.227C174.459 30.7567 174.424 30.327 174.403 29.9376C174.233 30.1753 173.997 30.4483 173.7 30.7618C173.399 31.0753 173.042 31.3685 172.626 31.6466C172.209 31.9247 171.732 32.1573 171.199 32.3393C170.677 32.5264 170.079 32.6174 169.416 32.6174Z" fill="#8C3E7D"/>
<path d="M105.875 16.7613H92.6057V9.02539H90.2704V32.2282H92.6057H105.875C108.953 32.2282 111.449 29.7153 111.449 26.6158V22.3737C111.454 19.2743 108.953 16.7613 105.875 16.7613ZM108.953 26.7574C108.953 28.7293 107.366 30.3271 105.408 30.3271H92.6057V18.6625H105.408C107.366 18.6625 108.953 20.2602 108.953 22.2321V26.7574Z" fill="#8C3E7D"/>
<path d="M18.2057 39.7065C19.4595 39.7065 20.4758 38.6833 20.4758 37.4211C20.4758 36.1589 19.4595 35.1357 18.2057 35.1357C16.952 35.1357 15.9357 36.1589 15.9357 37.4211C15.9357 38.6833 16.952 39.7065 18.2057 39.7065Z" fill="#8C3E7D"/>
<path d="M37.8579 39.7065C39.1116 39.7065 40.128 38.6833 40.128 37.4211C40.128 36.1589 39.1116 35.1357 37.8579 35.1357C36.6042 35.1357 35.5878 36.1589 35.5878 37.4211C35.5878 38.6833 36.6042 39.7065 37.8579 39.7065Z" fill="#8C3E7D"/>
<path d="M16.242 32.2029L11.2047 11.4321H0.582584L0 9.02539H13.078L18.7029 32.2029H16.242Z" fill="#8C3E7D"/>
<path d="M37.2351 32.2029H21.184L15.564 9.02539H18.0249L23.0623 29.7962H37.2402C38.4405 29.7962 39.5504 29.2501 40.2887 28.3046C41.027 27.354 41.2881 26.1406 41.0018 24.9675L40.3891 22.4647C39.917 20.5231 38.1994 19.1681 36.2156 19.1681H22.9518L22.3793 16.7613H36.2156C39.3043 16.7613 41.9762 18.8698 42.7094 21.8883L43.3221 24.3911C43.7842 26.2872 43.3623 28.254 42.167 29.7861C40.9717 31.3181 39.1737 32.2029 37.2351 32.2029Z" fill="#8C3E7D"/>
</svg>
