<svg width="38" height="36" viewBox="0 0 38 36" fill="none" xmlns="http://www.w3.org/2000/svg">
<g opacity="0.7">
<path d="M19.2904 35.762C28.4593 35.762 35.8922 28.3291 35.8922 19.1602C35.8922 9.99129 28.4593 2.55841 19.2904 2.55841C10.1215 2.55841 2.6886 9.99129 2.6886 19.1602C2.6886 28.3291 10.1215 35.762 19.2904 35.762Z" fill="#E1BBA5"/>
<path d="M7.94031 4.42395C8.91867 4.42395 9.7118 3.63083 9.7118 2.65247C9.7118 1.6741 8.91867 0.880981 7.94031 0.880981C6.96194 0.880981 6.16882 1.6741 6.16882 2.65247C6.16882 3.63083 6.96194 4.42395 7.94031 4.42395Z" fill="#E1BBA5"/>
</g>
<path d="M14.2071 31.6586C15.1855 31.6586 15.9786 30.8655 15.9786 29.8871C15.9786 28.9088 15.1855 28.1156 14.2071 28.1156C13.2287 28.1156 12.4356 28.9088 12.4356 29.8871C12.4356 30.8655 13.2287 31.6586 14.2071 31.6586Z" fill="#8C3E7D"/>
<path d="M29.543 31.6586C30.5214 31.6586 31.3145 30.8655 31.3145 29.8872C31.3145 28.9088 30.5214 28.1157 29.543 28.1157C28.5647 28.1157 27.7715 28.9088 27.7715 29.8872C27.7715 30.8655 28.5647 31.6586 29.543 31.6586Z" fill="#8C3E7D"/>
<path d="M12.6748 25.8425L8.74378 9.74238H0.454629L0 7.87683H10.2056L14.5952 25.8425H12.6748Z" fill="#8C3E7D"/>
<path d="M29.0571 25.8425H16.5313L12.1457 7.87683H14.0661L17.9971 23.977H29.061C29.9977 23.977 30.8639 23.5537 31.44 22.8208C32.0161 22.084 32.2199 21.1434 31.9965 20.2341L31.5184 18.2941C31.15 16.7891 29.8096 15.7388 28.2615 15.7388H17.9109L17.4641 13.8732H28.2615C30.6718 13.8732 32.7569 15.5075 33.3291 17.8473L33.8072 19.7873C34.1678 21.257 33.8386 22.7816 32.9058 23.9691C31.973 25.1567 30.5699 25.8425 29.0571 25.8425Z" fill="#8C3E7D"/>
</svg>
