<?xml version="1.0" encoding="utf-8"?>
<!-- Generator: Adobe Illustrator 25.3.1, SVG Export Plug-In . SVG Version: 6.00 Build 0)  -->
<svg version="1.1" id="Слой_1" xmlns="http://www.w3.org/2000/svg" xmlns:xlink="http://www.w3.org/1999/xlink" x="0px" y="0px"
	 viewBox="0 0 272.1 133.2" enable-background="new 0 0 272.1 133.2" xml:space="preserve">
<rect fill="none" width="272.1" height="133.2"/>
<path id="XMLID_34_" d="M101.8,50.2c-1.3,1.5-3.3,2.7-5.3,2.5c-0.3-2,0.7-4.2,1.9-5.5c1.3-1.5,3.5-2.6,5.3-2.7
	C103.9,46.6,103.1,48.6,101.8,50.2 M103.6,53.1c-2.9-0.2-5.4,1.7-6.8,1.7c-1.4,0-3.5-1.6-5.9-1.5c-3,0-5.8,1.8-7.4,4.5
	c-3.2,5.4-0.8,13.5,2.2,17.9c1.5,2.2,3.3,4.6,5.7,4.5c2.2-0.1,3.1-1.5,5.8-1.5c2.7,0,3.5,1.5,5.9,1.4c2.4,0,4-2.2,5.5-4.4
	c1.7-2.5,2.4-4.9,2.4-5c0,0-4.7-1.8-4.8-7.2c0-4.5,3.7-6.7,3.9-6.8C108.1,53.5,104.8,53.2,103.6,53.1 M120.6,47v32.9h5.1V68.6h7.1
	c6.5,0,11-4.4,11-10.8S139.3,47,132.9,47L120.6,47L120.6,47z M125.7,51.3h5.9c4.4,0,7,2.4,7,6.5s-2.5,6.5-7,6.5h-5.9V51.3z
	 M153.1,80.1c3.2,0,6.2-1.6,7.5-4.2h0.1v3.9h4.7V63.5c0-4.7-3.8-7.8-9.6-7.8c-5.4,0-9.4,3.1-9.6,7.4h4.6c0.4-2,2.3-3.4,4.8-3.4
	c3.1,0,4.9,1.5,4.9,4.1v1.8l-6.4,0.4c-5.9,0.4-9.1,2.8-9.1,7C145,77.3,148.3,80.1,153.1,80.1z M154.4,76.2c-2.7,0-4.4-1.3-4.4-3.3
	c0-2.1,1.7-3.3,4.9-3.5l5.7-0.4v1.9C160.5,74,157.9,76.2,154.4,76.2z M171.7,88.8c5,0,7.3-1.9,9.4-7.7l9-25.1h-5.2l-6,19.4h-0.1
	l-6-19.4h-5.3l8.6,23.9l-0.5,1.5c-0.8,2.5-2,3.4-4.3,3.4c-0.4,0-1.2,0-1.5-0.1v3.9C170.1,88.7,171.3,88.8,171.7,88.8z"/>
</svg>
