<?xml version="1.0" encoding="utf-8"?>
<!-- Generator: Adobe Illustrator 25.3.1, SVG Export Plug-In . SVG Version: 6.00 Build 0)  -->
<svg version="1.1" id="Слой_1" xmlns="http://www.w3.org/2000/svg" xmlns:xlink="http://www.w3.org/1999/xlink" x="0px" y="0px"
	 viewBox="0 0 272.1 133.2" enable-background="new 0 0 272.1 133.2" xml:space="preserve">
<rect y="0" fill="none" width="272.1" height="133.2"/>
<g>
	<path fill="#5F6368" d="M132.9,66.1v13.5h-4.3V46.3H140c2.7-0.1,5.4,1,7.3,2.9c2,1.8,3.1,4.3,3.1,7c0.1,2.7-1.1,5.3-3.1,7.1
		c-2,1.9-4.4,2.8-7.3,2.8L132.9,66.1L132.9,66.1z M132.9,50.4V62h7.2c1.6,0,3.1-0.6,4.2-1.7c2.2-2.2,2.3-5.8,0.1-8
		c0,0-0.1-0.1-0.1-0.1c-1.1-1.2-2.6-1.8-4.2-1.8L132.9,50.4L132.9,50.4z"/>
	<path fill="#5F6368" d="M160.2,56.1c3.2,0,5.6,0.8,7.5,2.5c1.8,1.7,2.7,4,2.7,6.9v14h-4.1v-3.2h-0.2c-1.8,2.6-4.1,3.9-7.1,3.9
		c-2.5,0-4.6-0.7-6.3-2.2c-1.6-1.4-2.6-3.4-2.5-5.6c0-2.4,0.9-4.2,2.7-5.6c1.8-1.4,4.2-2.1,7.1-2.1c2.5,0,4.6,0.5,6.3,1.4v-1
		c0-1.5-0.6-2.8-1.8-3.8c-1.1-1-2.6-1.6-4.1-1.6c-2.4,0-4.3,1-5.7,3l-3.8-2.4C153.1,57.5,156.1,56.1,160.2,56.1z M154.7,72.6
		c0,1.1,0.5,2.1,1.4,2.8c0.9,0.7,2.1,1.1,3.3,1.1c1.8,0,3.5-0.7,4.8-2c1.4-1.3,2.1-2.9,2.1-4.7c-1.3-1.1-3.2-1.6-5.6-1.6
		c-1.7,0-3.2,0.4-4.3,1.3C155.3,70.3,154.7,71.3,154.7,72.6L154.7,72.6z"/>
	<path fill="#5F6368" d="M193.8,56.8l-14.3,32.8h-4.4l5.3-11.5l-9.4-21.3h4.6l6.8,16.3h0.1l6.6-16.3H193.8z"/>
	<path fill="#4285F4" d="M115.7,63.2c0-1.3-0.1-2.6-0.3-3.9h-18v7.4h10.3c-0.4,2.4-1.8,4.5-3.8,5.8v4.8h6.2
		C113.6,73.9,115.7,69,115.7,63.2z"/>
	<path fill="#34A853" d="M97.3,81.8c5.2,0,9.5-1.7,12.7-4.6l-6.2-4.8c-1.7,1.2-3.9,1.8-6.5,1.8c-5,0-9.2-3.4-10.7-7.9h-6.3v4.9
		C83.5,77.8,90.1,81.8,97.3,81.8z"/>
	<path fill="#FBBC04" d="M86.6,66.4c-0.8-2.4-0.8-4.9,0-7.3v-4.9h-6.3c-2.7,5.4-2.7,11.7,0,17.1L86.6,66.4z"/>
	<path fill="#EA4335" d="M97.3,51.2c2.7,0,5.4,1,7.3,2.9l0,0l5.4-5.4c-3.5-3.2-8-5-12.8-5c-7.2,0-13.8,4.1-17.1,10.5l6.3,4.9
		C88.1,54.6,92.4,51.2,97.3,51.2z"/>
</g>
</svg>
