<svg width="26" height="26" viewBox="0 0 26 26" fill="none" xmlns="http://www.w3.org/2000/svg">
<path d="M25.4001 22.5176L19.8054 16.9228C20.9839 15.1898 21.673 13.0938 21.673 10.8388C21.6771 4.85257 16.8246 0 10.8386 0C4.85248 0 0 4.85257 0 10.8388C0 16.825 4.85248 21.6775 10.8386 21.6775C13.0935 21.6775 15.1895 20.9884 16.9225 19.8099L22.5171 25.4046C22.9167 25.8043 23.4387 26 23.9606 26C24.4826 26 25.0045 25.8002 25.4041 25.4046C26.1993 24.6054 26.1993 23.3127 25.4001 22.5176ZM1.63108 10.8388C1.63108 5.76192 5.76181 1.63112 10.8386 1.63112C15.9153 1.63112 20.046 5.76192 20.046 10.8388C20.046 15.9156 15.9153 20.0464 10.8386 20.0464C5.76181 20.0464 1.63108 15.9156 1.63108 10.8388Z" fill="#E1BBA5"/>
</svg>
