<svg width="24" height="24" viewBox="0 0 24 24" fill="none" xmlns="http://www.w3.org/2000/svg">
<circle cx="12" cy="12" r="12" fill="#E1BBA5"/>
<circle cx="12" cy="12" r="9.5" stroke="white"/>
<path d="M9.02507 6.678H11.8641C12.4307 6.678 12.9577 6.746 13.4451 6.882C13.9324 7.018 14.3517 7.222 14.7031 7.494C15.0657 7.766 15.3434 8.106 15.5361 8.514C15.7401 8.922 15.8421 9.398 15.8421 9.942C15.8421 11.064 15.4794 11.9253 14.7541 12.526C14.0287 13.1267 13.0031 13.427 11.6771 13.427H10.3511V18H9.02507V6.678ZM11.6771 12.305C12.6744 12.305 13.3884 12.1067 13.8191 11.71C14.2611 11.3133 14.4821 10.741 14.4821 9.993C14.4821 9.67567 14.4311 9.381 14.3291 9.109C14.2384 8.837 14.0797 8.60467 13.8531 8.412C13.6377 8.21933 13.3544 8.072 13.0031 7.97C12.6517 7.85667 12.2267 7.8 11.7281 7.8H10.3511V12.305H11.6771Z" fill="#8C3E7D"/>
<path d="M7.39307 13.342H16.6071V14.379H7.39307V13.342Z" fill="#8C3E7D"/>
</svg>
