<svg width="25" height="22" viewBox="0 0 25 22" fill="none" xmlns="http://www.w3.org/2000/svg">
<path d="M19.8908 15.0574C17.5683 17.4725 14.8169 19.3408 13.147 20.3657C12.8217 20.5639 12.4556 20.6667 12.0871 20.6667C11.64 20.6667 11.2136 20.5222 10.8455 20.2396C9.33193 19.075 6.83424 16.9989 4.72441 14.5271C2.58172 12.0169 1 9.28321 1 6.78488C1 3.55815 3.51438 1 6.51994 1C8.16802 1 9.72177 1.76051 10.7828 3.11254L10.7834 3.11324C11.1968 3.63909 11.8219 3.95289 12.5 3.95289C13.1781 3.95289 13.8032 3.63909 14.2166 3.11324L14.2172 3.11254C15.2782 1.76051 16.832 1 18.4801 1C21.4856 1 24 3.55815 24 6.78488C24 9.77398 22.2347 12.6201 19.8908 15.0574Z" fill="white" stroke="#2E6E9F" stroke-width="2"/>
</svg>