<svg width="35" height="27" viewBox="0 0 35 27" fill="none" xmlns="http://www.w3.org/2000/svg">
<path d="M0.785034 1.5H8.70738L11.8388 21.541H28.5824C30.4425 21.541 32.0113 20.1506 32.2336 18.3063L33.22 10.1615C33.4862 7.96948 31.7764 6.04054 29.5688 6.04054H13.9901" stroke="#757575" stroke-width="2" stroke-miterlimit="10"/>
<path d="M14.2922 26.5844C15.5581 26.5844 16.5844 25.5581 16.5844 24.2922C16.5844 23.0262 15.5581 22 14.2922 22C13.0262 22 12 23.0262 12 24.2922C12 25.5581 13.0262 26.5844 14.2922 26.5844Z" fill="#757575"/>
<path d="M27.2922 26.5844C28.5581 26.5844 29.5844 25.5581 29.5844 24.2922C29.5844 23.0262 28.5581 22 27.2922 22C26.0262 22 25 23.0262 25 24.2922C25 25.5581 26.0262 26.5844 27.2922 26.5844Z" fill="#757575"/>
<path d="M13.6049 11H29.1961" stroke="#757575" stroke-width="2" stroke-miterlimit="10"/>
<path d="M15.1925 15.6782H27.6085" stroke="#757575" stroke-width="2" stroke-miterlimit="10"/>
</svg>
