<svg width="24" height="22" viewBox="0 0 24 22" fill="none" xmlns="http://www.w3.org/2000/svg">
<path d="M10.3177 3.53281L10.3172 3.5321C9.30446 2.22925 7.82483 1.5 6.25915 1.5C3.40619 1.5 1 3.95528 1 7.07611C1 9.48937 2.51373 12.1329 4.56891 14.5637C6.59188 16.9565 8.98708 18.9667 10.4391 20.0948L10.3177 3.53281ZM10.3177 3.53281C10.7206 4.05009 11.3326 4.36204 12 4.36204C12.6674 4.36204 13.2794 4.05009 13.6823 3.53281L13.6828 3.5321M10.3177 3.53281L13.6828 3.5321M13.6828 3.5321C14.6955 2.22925 16.1752 1.5 17.7409 1.5C20.5938 1.5 23 3.95528 23 7.07611C23 9.96487 21.3101 12.7171 19.0631 15.0762C16.8364 17.4139 14.1981 19.2227 12.5965 20.2151C12.2908 20.4031 11.9478 20.5 11.6037 20.5C11.1857 20.5 10.786 20.3638 10.4393 20.095L13.6828 3.5321Z" fill="#2E6E9F" stroke="#2E6E9F" stroke-width="2"/>
</svg>
