<svg width="50" height="50" viewBox="0 0 50 50" fill="none" xmlns="http://www.w3.org/2000/svg">
<circle opacity="0.8" cx="25" cy="25" r="25" fill="white"/>
<g opacity="0.7">
<path d="M39.3083 35.9818L32.8529 29.5264C34.2127 27.5267 35.0078 25.1082 35.0078 22.5063C35.0125 15.5991 29.4134 10 22.5063 10C15.5991 10 10 15.5991 10 22.5063C10 29.4134 15.5991 35.0125 22.5063 35.0125C25.1082 35.0125 27.5267 34.2174 29.5263 32.8576L35.9818 39.313C36.4429 39.7742 37.0452 40 37.6474 40C38.2497 40 38.8519 39.7694 39.313 39.313C40.2306 38.3908 40.2306 36.8993 39.3083 35.9818ZM11.8821 22.5063C11.8821 16.6484 16.6484 11.8821 22.5063 11.8821C28.3642 11.8821 33.1305 16.6484 33.1305 22.5063C33.1305 28.3642 28.3642 33.1305 22.5063 33.1305C16.6484 33.1305 11.8821 28.3642 11.8821 22.5063Z" fill="#2E6E9F"/>
<path d="M17 22C17 21.4477 17.4477 21 18 21H27C27.5523 21 28 21.4477 28 22V23C28 23.5523 27.5523 24 27 24H18C17.4477 24 17 23.5523 17 23V22Z" fill="#2E6E9F"/>
<path d="M22 28C21.4477 28 21 27.5523 21 27V18C21 17.4477 21.4477 17 22 17H23C23.5523 17 24 17.4477 24 18V27C24 27.5523 23.5523 28 23 28H22Z" fill="#2E6E9F"/>
</g>
</svg>
