<svg width="42" height="32" viewBox="0 0 42 32" fill="none" xmlns="http://www.w3.org/2000/svg">
<path d="M0.790649 25.1163L12.7906 25.1163" stroke="#757575" stroke-width="4" stroke-miterlimit="10"/>
<path d="M0.790649 13.5581L12.7906 13.5581" stroke="#757575" stroke-width="4" stroke-miterlimit="10"/>
<path d="M0.511597 2L36.5116 2" stroke="#757575" stroke-width="4" stroke-miterlimit="10"/>
<path d="M27.093 25.8139C31.7168 25.8139 35.4651 22.0656 35.4651 17.4419C35.4651 12.8181 31.7168 9.06976 27.093 9.06976C22.4693 9.06976 18.7209 12.8181 18.7209 17.4419C18.7209 22.0656 22.4693 25.8139 27.093 25.8139Z" stroke="#757575" stroke-width="2" stroke-miterlimit="10"/>
<path d="M35.1304 23.3579L34.0698 22.2973L31.9484 24.4186L33.0091 25.4793L35.1304 23.3579ZM38.5905 31.0607C39.1763 31.6465 40.126 31.6465 40.7118 31.0607C41.2976 30.4749 41.2976 29.5251 40.7118 28.9393L38.5905 31.0607ZM33.0091 25.4793L38.5905 31.0607L40.7118 28.9393L35.1304 23.3579L33.0091 25.4793Z" fill="#757575"/>
</svg>
