<svg width="19" height="19" viewBox="0 0 19 19" fill="none" xmlns="http://www.w3.org/2000/svg">
<path d="M18.5616 16.4551L14.4732 12.3667C15.3344 11.1002 15.838 9.56854 15.838 7.92064C15.841 3.54611 12.2949 0 7.92048 0C3.54604 0 0 3.54611 0 7.92064C0 12.2952 3.54604 15.8413 7.92048 15.8413C9.56835 15.8413 11.1 15.3377 12.3664 14.4765L16.4548 18.5649C16.7468 18.857 17.1283 19 17.5097 19C17.8911 19 18.2725 18.854 18.5646 18.5649C19.1456 17.9809 19.1456 17.0362 18.5616 16.4551ZM1.19195 7.92064C1.19195 4.21063 4.21055 1.19197 7.92048 1.19197C11.6304 1.19197 14.649 4.21063 14.649 7.92064C14.649 11.6306 11.6304 14.6493 7.92048 14.6493C4.21055 14.6493 1.19195 11.6306 1.19195 7.92064Z" fill="#8C3E7D"/>
<path d="M4.43325 7.6C4.43325 7.25022 4.71679 6.96667 5.06657 6.96667H10.7665C11.1162 6.96667 11.3998 7.25022 11.3998 7.6V8.23333C11.3998 8.58311 11.1162 8.86667 10.7665 8.86667H5.06657C4.71679 8.86667 4.43325 8.58311 4.43325 8.23333V7.6Z" fill="#8C3E7D"/>
<path d="M7.59985 11.4C7.25008 11.4 6.96653 11.1164 6.96653 10.7667V5.06667C6.96653 4.71689 7.25008 4.43333 7.59985 4.43333H8.23317C8.58294 4.43333 8.86649 4.71689 8.86649 5.06667V10.7667C8.86649 11.1164 8.58294 11.4 8.23317 11.4H7.59985Z" fill="#8C3E7D"/>
</svg>
