<svg width="50" height="50" viewBox="0 0 50 50" fill="none" xmlns="http://www.w3.org/2000/svg">
<path opacity="0.5" d="M47 25C47 37.1503 37.1503 47 25 47C12.8497 47 3 37.1503 3 25C3 12.8497 12.8497 3 25 3C37.1503 3 47 12.8497 47 25Z" fill="white"/>
<g opacity="0.7">
<path d="M37.4001 34.5176L31.8054 28.9228C32.9839 27.1898 33.673 25.0938 33.673 22.8388C33.6771 16.8526 28.8246 12 22.8386 12C16.8525 12 12 16.8526 12 22.8388C12 28.825 16.8525 33.6775 22.8386 33.6775C25.0935 33.6775 27.1895 32.9884 28.9225 31.8099L34.5171 37.4046C34.9167 37.8043 35.4387 38 35.9606 38C36.4826 38 37.0045 37.8002 37.4041 37.4046C38.1993 36.6054 38.1993 35.3127 37.4001 34.5176ZM13.6311 22.8388C13.6311 17.7619 17.7618 13.6311 22.8386 13.6311C27.9153 13.6311 32.046 17.7619 32.046 22.8388C32.046 27.9156 27.9153 32.0464 22.8386 32.0464C17.7618 32.0464 13.6311 27.9156 13.6311 22.8388Z" fill="#8C3E7D"/>
<path d="M18.0665 22.4C18.0665 21.9214 18.4546 21.5333 18.9332 21.5333H26.733C27.2117 21.5333 27.5997 21.9214 27.5997 22.4V23.2667C27.5997 23.7453 27.2117 24.1333 26.733 24.1333H18.9332C18.4546 24.1333 18.0665 23.7453 18.0665 23.2667V22.4Z" fill="#8C3E7D"/>
<path d="M22.3998 27.6C21.9212 27.6 21.5331 27.212 21.5331 26.7333V18.9333C21.5331 18.4547 21.9212 18.0667 22.3998 18.0667H23.2664C23.7451 18.0667 24.1331 18.4547 24.1331 18.9333V26.7333C24.1331 27.212 23.7451 27.6 23.2664 27.6H22.3998Z" fill="#8C3E7D"/>
</g>
</svg>
