<svg width="26" height="23" viewBox="0 0 26 23" fill="none" xmlns="http://www.w3.org/2000/svg">
<path d="M20.7082 16.0341C18.2886 18.6023 15.4233 20.5879 13.6858 21.6764C13.3421 21.8901 12.9569 22 12.5706 22C12.1017 22 11.6522 21.8454 11.2621 21.5395C9.68707 20.3024 7.08684 18.0964 4.88948 15.4688C2.66094 12.8039 1 9.88481 1 7.20241C1 3.72568 3.65018 1 6.78074 1C8.49916 1 10.1255 1.8093 11.2395 3.25824L11.24 3.25895C11.6595 3.80344 12.2992 4.13461 13 4.13461C13.7008 4.13461 14.3405 3.80344 14.76 3.25895L14.7605 3.25824C15.8745 1.8093 17.5008 1 19.2193 1C22.3498 1 25 3.72568 25 7.20241C25 10.4069 23.1474 13.4452 20.7082 16.0341Z" fill="#8C3E7D" stroke="#8C3E7D" stroke-width="2"/>
</svg>
