<?xml version="1.0" encoding="utf-8"?>
<!-- Generator: Adobe Illustrator 25.3.1, SVG Export Plug-In . SVG Version: 6.00 Build 0)  -->
<svg version="1.1" id="Слой_1" xmlns="http://www.w3.org/2000/svg" xmlns:xlink="http://www.w3.org/1999/xlink" x="0px" y="0px"
	 viewBox="0 0 272.1 133.2" enable-background="new 0 0 272.1 133.2" xml:space="preserve">
<rect y="0" fill="none" width="272.1" height="133.2"/>
<g>
	<path id="XMLID_1775_" d="M111.6,96.3v-4c0-1.5-0.9-2.5-2.5-2.5c-0.8,0-1.7,0.3-2.2,1.1c-0.5-0.7-1.1-1.1-2.1-1.1
		c-0.7,0-1.3,0.2-1.8,0.9V90h-1.4v6.3h1.4v-3.5c0-1.1,0.6-1.7,1.5-1.7c0.9,0,1.4,0.6,1.4,1.7v3.5h1.4v-3.5c0-1.1,0.7-1.7,1.5-1.7
		c0.9,0,1.4,0.6,1.4,1.7v3.5H111.6L111.6,96.3z M132.1,90h-2.2V88h-1.4V90h-1.3v1.3h1.3v2.9c0,1.5,0.6,2.3,2.2,2.3
		c0.6,0,1.3-0.2,1.7-0.5l-0.4-1.2c-0.4,0.3-0.9,0.3-1.2,0.3c-0.7,0-0.9-0.4-0.9-1.1v-2.8h2.2L132.1,90L132.1,90z M143.8,89.8
		c-0.8,0-1.3,0.4-1.7,0.9v-0.8h-1.4v6.3h1.4v-3.6c0-1.1,0.5-1.7,1.3-1.7c0.3,0,0.6,0.1,0.9,0.1l0.4-1.3
		C144.5,89.8,144.1,89.8,143.8,89.8L143.8,89.8z M126.1,90.5c-0.7-0.5-1.6-0.7-2.6-0.7c-1.6,0-2.6,0.8-2.6,2c0,1.1,0.8,1.7,2.2,1.8
		l0.7,0.1c0.7,0.1,1.1,0.3,1.1,0.7c0,0.5-0.5,0.8-1.5,0.8c-0.9,0-1.7-0.3-2.1-0.7l-0.7,1.1c0.7,0.5,1.7,0.8,2.7,0.8
		c1.8,0,2.9-0.9,2.9-2c0-1.1-0.9-1.7-2.2-1.9l-0.7-0.1c-0.6-0.1-1.1-0.2-1.1-0.6c0-0.5,0.5-0.7,1.2-0.7c0.8,0,1.6,0.3,2,0.5
		L126.1,90.5L126.1,90.5z M162.9,89.8c-0.8,0-1.3,0.4-1.7,0.9v-0.8h-1.4v6.3h1.4v-3.6c0-1.1,0.5-1.7,1.3-1.7c0.3,0,0.6,0.1,0.9,0.1
		l0.4-1.3C163.6,89.8,163.2,89.8,162.9,89.8L162.9,89.8z M145.2,93.1c0,1.9,1.3,3.3,3.4,3.3c0.9,0,1.6-0.2,2.2-0.7l-0.7-1.1
		c-0.5,0.4-1.1,0.6-1.7,0.6c-1.1,0-1.9-0.8-1.9-2c0-1.2,0.8-2,1.9-2c0.6,0,1.1,0.2,1.7,0.6l0.7-1.1c-0.7-0.5-1.3-0.7-2.2-0.7
		C146.5,89.8,145.2,91.2,145.2,93.1L145.2,93.1L145.2,93.1z M158,93.1V90h-1.4v0.8c-0.5-0.6-1.1-0.9-2-0.9c-1.8,0-3.2,1.4-3.2,3.3
		c0,1.9,1.4,3.3,3.2,3.3c0.9,0,1.6-0.3,2-0.9v0.8h1.4V93.1L158,93.1z M152.9,93.1c0-1.1,0.7-2,1.9-2c1.1,0,1.9,0.9,1.9,2
		c0,1.1-0.8,2-1.9,2C153.7,95.1,152.9,94.2,152.9,93.1L152.9,93.1z M136.4,89.8c-1.8,0-3.2,1.3-3.2,3.3c0,2,1.3,3.3,3.2,3.3
		c0.9,0,1.8-0.3,2.6-0.9l-0.7-1c-0.5,0.4-1.2,0.7-1.8,0.7c-0.9,0-1.7-0.4-1.9-1.5h4.7c0-0.2,0-0.3,0-0.5
		C139.4,91.1,138.2,89.8,136.4,89.8L136.4,89.8L136.4,89.8z M136.4,91c0.9,0,1.5,0.5,1.6,1.5h-3.3C134.8,91.7,135.4,91,136.4,91
		L136.4,91z M170.7,93.1v-5.7h-1.4v3.3c-0.5-0.6-1.1-0.9-2-0.9c-1.8,0-3.2,1.4-3.2,3.3s1.4,3.3,3.2,3.3c0.9,0,1.6-0.3,2-0.9v0.8h1.4
		V93.1L170.7,93.1z M165.7,93.1c0-1.1,0.7-2,1.9-2c1.1,0,1.9,0.9,1.9,2c0,1.1-0.8,2-1.9,2C166.4,95.1,165.7,94.2,165.7,93.1
		L165.7,93.1z M119.4,93.1V90H118v0.8c-0.5-0.6-1.1-0.9-2-0.9c-1.8,0-3.2,1.4-3.2,3.3c0,1.9,1.4,3.3,3.2,3.3c0.9,0,1.6-0.3,2-0.9
		v0.8h1.4V93.1L119.4,93.1z M114.2,93.1c0-1.1,0.7-2,1.9-2c1.1,0,1.9,0.9,1.9,2c0,1.1-0.8,2-1.9,2C115,95.1,114.2,94.2,114.2,93.1z"
		/>
	<g>
		<rect id="rect19" x="125.6" y="41.9" fill="#FF5A00" width="20.8" height="37.3"/>
		<path id="XMLID_330_" fill="#EB001B" d="M127,60.5c0-7.6,3.6-14.3,9-18.7c-4-3.2-9.1-5.1-14.6-5.1c-13.1,0-23.7,10.6-23.7,23.7
			s10.6,23.7,23.7,23.7c5.5,0,10.6-1.9,14.6-5.1C130.6,74.9,127,68.1,127,60.5z"/>
		<path id="path22" fill="#F79E1B" d="M174.4,60.5c0,13.1-10.6,23.7-23.7,23.7c-5.5,0-10.6-1.9-14.6-5.1c5.5-4.4,9-11.1,9-18.7
			c0-7.6-3.6-14.3-9-18.7c4-3.2,9.1-5.1,14.6-5.1C163.8,36.8,174.4,47.5,174.4,60.5z"/>
	</g>
</g>
</svg>
