<?xml version="1.0" encoding="utf-8"?>
<!-- Generator: Adobe Illustrator 25.3.1, SVG Export Plug-In . SVG Version: 6.00 Build 0)  -->
<svg version="1.1" id="Слой_1" xmlns="http://www.w3.org/2000/svg" xmlns:xlink="http://www.w3.org/1999/xlink" x="0px" y="0px"
	 viewBox="0 0 272.1 133.2" enable-background="new 0 0 272.1 133.2" xml:space="preserve">
<rect x="0" fill="none" width="272.1" height="133.2"/>
<g>
	<g transform="translate(68 86)">
		<circle fill="#EB001B" cx="-14" cy="-19.4" r="17.2"/>
		<circle fill="#F79E1B" cx="6.8" cy="-19.4" r="17.2"/>
		<path fill="#FF5F00" d="M-3.6-33.1C0.5-30,3.2-25,3.2-19.4S0.5-8.9-3.6-5.7c-4.1-3.1-6.8-8.1-6.8-13.7S-7.7-30-3.6-33.1z"/>
	</g>
	<path fill="#F79E1B" d="M90.9,78v0.1h-0.3V79h-0.2v-0.8h-0.3V78H90.9z M92.1,78v1h-0.2v-0.8l-0.3,0.7h-0.2l-0.3-0.7V79h-0.2v-1h0.2
		l0.3,0.7l0.3-0.7L92.1,78L92.1,78z"/>
	<path d="M234.1,67.2v0.1h-0.3v0.8h-0.2v-0.8h-0.3v-0.1H234.1z M235.3,67.2v1h-0.2v-0.8l-0.3,0.7h-0.2l-0.3-0.7v0.8h-0.2v-1h0.2
		l0.3,0.7l0.3-0.7L235.3,67.2L235.3,67.2z M116.7,56.3c2.6,0,4.5,1.8,4.5,4.4v6.9h-2.4v-6.1c0-1.9-1-2.9-2.6-2.9
		c-1.6,0-2.9,1-2.9,2.9v6.1h-2.4v-6.1c0-1.9-1-2.9-2.6-2.9c-1.6,0-2.9,1-2.9,2.9v6.1h-2.4v-11h2.4V58c0.9-1.3,2.3-1.6,3.4-1.6
		c1.7,0,3.1,0.7,3.8,2C113.6,56.7,115.3,56.3,116.7,56.3L116.7,56.3z M135.3,56.6v11h-2.4v-1.3c-0.8,1-1.9,1.6-3.5,1.6
		c-3.1,0-5.5-2.4-5.5-5.8s2.4-5.8,5.5-5.8c1.6,0,2.7,0.6,3.5,1.6v-1.3H135.3z M129.7,58.6c-2.1,0-3.3,1.6-3.3,3.5
		c0,1.9,1.3,3.5,3.3,3.5c2,0,3.3-1.5,3.3-3.5S131.7,58.6,129.7,58.6L129.7,58.6z M147.4,57.5l-1,1.9c-0.7-0.4-2-0.9-3.4-0.9
		c-1.3,0-2.1,0.5-2.1,1.3c0,0.8,0.8,1,1.8,1.1l1.1,0.2c2.4,0.3,3.8,1.4,3.8,3.3c0,2.1-1.8,3.6-5,3.6c-1.1,0-3.1-0.2-4.7-1.4l1.1-1.8
		c0.8,0.6,1.8,1.1,3.6,1.1c1.6,0,2.5-0.5,2.5-1.3c0-0.6-0.6-1-1.9-1.2l-1.2-0.1c-2.4-0.3-3.7-1.5-3.7-3.2c0-2.2,1.8-3.5,4.6-3.5
		C144.6,56.3,146.2,56.8,147.4,57.5L147.4,57.5z M157.8,56.6v2.2h-4.2v4.8c0,1.5,0.8,2.1,1.8,2.1c0.7,0,1.6-0.3,2.2-0.7l1,1.9
		c-0.9,0.6-2,1.1-3.4,1.1c-2.5,0-4-1.3-4-4.3v-4.9H149v-2.2h2.2v-3.3h2.4v3.3H157.8z M165.2,56.3c3.1,0,5.2,2.4,5.2,5.8
		c0,0.3,0,0.6,0,0.9h-8.2c0.3,2,1.7,2.8,3.3,2.8c1.1,0,2.3-0.4,3.2-1.2l1.2,1.7c-1.3,1.2-2.9,1.6-4.5,1.6c-3.3,0-5.7-2.3-5.7-5.8
		C159.7,58.7,162,56.3,165.2,56.3L165.2,56.3z M165.2,58.5c-1.7,0-2.7,1.1-2.9,2.7h5.7C167.7,59.5,166.7,58.5,165.2,58.5L165.2,58.5
		z M178.8,56.3c0.7,0,1.3,0.1,1.9,0.3l-0.6,2.4c-0.5-0.3-1.2-0.4-1.8-0.4c-1.5,0-2.6,1.1-2.6,3v6.1h-2.4v-11h2.4v1.2
		C176.4,56.8,177.5,56.3,178.8,56.3L178.8,56.3z M188.8,56.3c3.1,0,5.5,2.4,5.5,5.8s-2.4,5.8-5.5,5.8c-1.6,0-2.7-0.6-3.5-1.6v5.9
		h-2.4V56.6h2.4v1.3C186.1,57,187.2,56.3,188.8,56.3z M188.5,58.6c-2,0-3.3,1.5-3.3,3.5s1.3,3.5,3.3,3.5c2.1,0,3.3-1.6,3.3-3.5
		C191.8,60.2,190.6,58.6,188.5,58.6L188.5,58.6z M207.7,56.6v11h-2.4v-1.3c-0.8,1-1.9,1.6-3.5,1.6c-3.1,0-5.5-2.4-5.5-5.8
		s2.4-5.8,5.5-5.8c1.6,0,2.7,0.6,3.5,1.6v-1.3H207.7z M202.1,58.6c-2.1,0-3.3,1.6-3.3,3.5c0,1.9,1.3,3.5,3.3,3.5
		c2,0,3.3-1.5,3.3-3.5S204.1,58.6,202.1,58.6L202.1,58.6z M219.8,57.5l-1,1.9c-0.7-0.4-2-0.9-3.4-0.9c-1.3,0-2.1,0.5-2.1,1.3
		c0,0.8,0.8,1,1.8,1.1l1.1,0.2c2.4,0.3,3.8,1.4,3.8,3.3c0,2.1-1.8,3.6-5,3.6c-1.1,0-3.1-0.2-4.7-1.4l1.1-1.8
		c0.8,0.6,1.8,1.1,3.6,1.1c1.6,0,2.5-0.5,2.5-1.3c0-0.6-0.6-1-1.9-1.2l-1.2-0.1c-2.4-0.3-3.7-1.5-3.7-3.2c0-2.2,1.8-3.5,4.6-3.5
		C217.1,56.3,218.7,56.8,219.8,57.5L219.8,57.5z M231.3,57.5l-1,1.9c-0.7-0.4-2-0.9-3.4-0.9c-1.3,0-2.1,0.5-2.1,1.3
		c0,0.8,0.8,1,1.8,1.1l1.1,0.2c2.4,0.3,3.8,1.4,3.8,3.3c0,2.1-1.8,3.6-5,3.6c-1.1,0-3.1-0.2-4.7-1.4l1.1-1.8
		c0.8,0.6,1.8,1.1,3.6,1.1c1.6,0,2.5-0.5,2.5-1.3c0-0.6-0.6-1-1.9-1.2l-1.2-0.1c-2.4-0.3-3.7-1.5-3.7-3.2c0-2.2,1.8-3.5,4.6-3.5
		C228.5,56.3,230.2,56.8,231.3,57.5L231.3,57.5z M106,73.6c1.5,0,2.6,1.1,2.6,2.7s-1.1,2.7-2.6,2.7c-0.7,0-1.3-0.3-1.6-0.8v0.6h-1.1
		v-7.8h1.1v3.2C104.7,73.9,105.2,73.6,106,73.6L106,73.6z M105.8,74.7c-0.9,0-1.6,0.7-1.6,1.7s0.6,1.7,1.6,1.7c1,0,1.6-0.8,1.6-1.7
		S106.8,74.7,105.8,74.7z M114.6,73.8l-4.1,7.4h-1.3l1.9-3.3l-2.3-4.1h1.3l1.7,3l1.6-3H114.6z M124.3,73.6c1.2,0,2.1,0.8,2.1,2.1
		v3.3h-1.1v-2.9c0-0.9-0.5-1.4-1.2-1.4c-0.7,0-1.3,0.5-1.3,1.4v2.9h-1.1v-2.9c0-0.9-0.4-1.4-1.2-1.4c-0.7,0-1.3,0.5-1.3,1.4v2.9
		h-1.1v-5.2h1.1v0.6c0.4-0.6,1.1-0.8,1.6-0.8c0.8,0,1.4,0.4,1.8,0.9C122.8,73.8,123.6,73.6,124.3,73.6L124.3,73.6z M132.9,73.8v5.2
		h-1.1v-0.6c-0.4,0.5-0.9,0.8-1.6,0.8c-1.5,0-2.6-1.1-2.6-2.7c0-1.6,1.1-2.7,2.6-2.7c0.7,0,1.3,0.3,1.6,0.8v-0.6H132.9z M130.2,74.7
		c-1,0-1.6,0.8-1.6,1.7s0.6,1.7,1.6,1.7c0.9,0,1.6-0.7,1.6-1.7C131.8,75.4,131.2,74.7,130.2,74.7z M138.5,74.2l-0.5,0.9
		c-0.3-0.2-1-0.4-1.6-0.4c-0.6,0-1,0.2-1,0.6c0,0.4,0.4,0.5,0.9,0.5l0.5,0.1c1.1,0.2,1.8,0.6,1.8,1.5c0,1-0.9,1.7-2.4,1.7
		c-0.5,0-1.5-0.1-2.2-0.7l0.5-0.8c0.4,0.3,0.9,0.5,1.7,0.5c0.8,0,1.2-0.2,1.2-0.6c0-0.3-0.3-0.5-0.9-0.6l-0.5-0.1
		c-1.1-0.2-1.8-0.7-1.8-1.5c0-1,0.8-1.7,2.1-1.7C137.2,73.6,137.9,73.8,138.5,74.2L138.5,74.2z M143.2,73.8v1h-2V77
		c0,0.7,0.4,1,0.8,1c0.4,0,0.7-0.2,1-0.4l0.4,0.9c-0.4,0.3-0.9,0.5-1.6,0.5c-1.2,0-1.9-0.6-1.9-2v-2.3h-1v-1h1v-1.6h1.1v1.6H143.2z
		 M146.6,73.6c1.5,0,2.4,1.1,2.5,2.7c0,0.1,0,0.3,0,0.4h-3.8c0.2,0.9,0.8,1.3,1.5,1.3c0.5,0,1.1-0.2,1.5-0.5l0.6,0.8
		c-0.6,0.5-1.4,0.7-2.1,0.7c-1.6,0-2.7-1.1-2.7-2.7C144,74.7,145.1,73.6,146.6,73.6z M146.6,74.6c-0.8,0-1.3,0.5-1.4,1.3h2.7
		C147.8,75.1,147.3,74.6,146.6,74.6z M152.9,73.6c0.3,0,0.6,0,0.9,0.1l-0.3,1.1c-0.2-0.1-0.6-0.2-0.9-0.2c-0.7,0-1.2,0.5-1.2,1.4
		v2.9h-1.1v-5.2h1.1v0.6C151.7,73.9,152.3,73.6,152.9,73.6L152.9,73.6z M156.9,73.6c0.8,0,1.5,0.3,1.9,0.8l-0.7,0.8
		c-0.4-0.3-0.7-0.5-1.3-0.5c-0.9,0-1.5,0.7-1.5,1.7c0,1,0.7,1.7,1.5,1.7c0.5,0,0.9-0.2,1.3-0.5l0.7,0.8c-0.5,0.5-1.2,0.8-1.9,0.8
		c-1.7,0-2.7-1.2-2.7-2.7C154.1,74.8,155.2,73.6,156.9,73.6L156.9,73.6z M164.7,73.8v5.2h-1.1v-0.6c-0.4,0.5-0.9,0.8-1.6,0.8
		c-1.5,0-2.6-1.1-2.6-2.7c0-1.6,1.1-2.7,2.6-2.7c0.7,0,1.3,0.3,1.6,0.8v-0.6H164.7z M162.1,74.7c-1,0-1.6,0.8-1.6,1.7
		s0.6,1.7,1.6,1.7c0.9,0,1.6-0.7,1.6-1.7C163.7,75.4,163.1,74.7,162.1,74.7z M168.9,73.6c0.3,0,0.6,0,0.9,0.1l-0.3,1.1
		c-0.2-0.1-0.6-0.2-0.9-0.2c-0.7,0-1.2,0.5-1.2,1.4v2.9h-1.1v-5.2h1.1v0.6C167.8,73.9,168.3,73.6,168.9,73.6L168.9,73.6z M173,73.6
		c0.7,0,1.3,0.3,1.6,0.8v-3.2h1.1v7.8h-1.1v-0.6c-0.4,0.5-0.9,0.8-1.6,0.8c-1.5,0-2.6-1.1-2.6-2.7S171.5,73.6,173,73.6L173,73.6z
		 M173.1,74.7c-1,0-1.6,0.8-1.6,1.7s0.6,1.7,1.6,1.7c0.9,0,1.6-0.7,1.6-1.7C174.7,75.4,174.1,74.7,173.1,74.7z"/>
</g>
</svg>
