<svg width="30" height="20" viewBox="0 0 30 20" fill="none" xmlns="http://www.w3.org/2000/svg">
<path fill-rule="evenodd" clip-rule="evenodd" d="M8.47957 8.00074L8.50224 8.00044C8.66304 7.9977 9.05603 7.99101 9.22727 8.56894C9.34848 8.97803 9.54157 9.64814 9.80652 10.5793H9.91443C10.1986 9.59761 10.3938 8.9275 10.5 8.56894C10.6709 7.99202 11.0829 7.99768 11.2827 8.00042C11.2954 8.00059 11.3073 8.00076 11.3182 8.00076L12.7209 8.00076V12.3644H11.2912V9.79282H11.1953L10.3983 12.3644H9.32262L8.52561 9.79092H8.42974V12.3644H7V8.00076L8.47957 8.00074ZM14.7741 8.00064V10.5741H14.8881L15.8576 8.45796C16.0458 8.03684 16.4469 8.00064 16.4469 8.00064H17.8305V12.3643H16.3709V9.7908H16.2568L15.3063 11.9069C15.1181 12.3262 14.698 12.3643 14.698 12.3643H13.3145V8.00064H14.7741ZM21.3246 11.0645C22.0325 11.0645 22.6718 10.6513 22.8754 10.0744H18.4059V12.3644H19.7939V11.0645H21.3246Z" fill="#40A548"/>
<path d="M21.3924 8.00098H18.334C18.4068 8.97247 19.2434 9.80413 20.1095 9.80413H22.9728C23.138 8.99671 22.5692 8.00098 21.3924 8.00098Z" fill="#1291D0"/>
</svg>
