<?xml version="1.0" encoding="utf-8"?>
<!-- Generator: Adobe Illustrator 25.3.1, SVG Export Plug-In . SVG Version: 6.00 Build 0)  -->
<svg version="1.1" id="Слой_1" xmlns="http://www.w3.org/2000/svg" xmlns:xlink="http://www.w3.org/1999/xlink" x="0px" y="0px"
	 viewBox="0 0 272.1 133.2" enable-background="new 0 0 272.1 133.2" xml:space="preserve">
<rect x="0" y="0" fill="none" width="272.1" height="133.2"/>
<g transform="translate(-13 -27)">
	<path fill="#161E6F" d="M137.2,78.3l-12.8,30.9H116l-6.3-24.7c-0.4-1.5-0.7-2-1.9-2.7c-2.5-1.2-5.1-2.1-7.8-2.6l0.2-0.9h13.5
		c1.8,0,3.4,1.4,3.6,3.2l3.3,17.8l8.2-21H137.2z M170.1,99c-0.1,6.4-5.5,10.6-13.8,10.5c-3,0.1-6-0.5-8.8-1.6l1.5-6.8
		c2.5,1.4,5.3,2,8.1,2c2.3,0,4.8-1,4.8-3c0-1.3-1.1-2.4-4.1-3.8c-3-1.5-7-3.9-6.9-8.4c0.1-5.9,5.6-10.2,13.4-10.2
		c2.5,0,5.1,0.5,7.4,1.4l-1.4,6.5c-2.4-1.2-5.1-1.6-7.8-1.4c-2.3,0.3-3.4,1.5-3.4,2.6C158.9,90.4,170.1,90.9,170.1,99z M190.7,109.1
		l-1-4.6h-10.2l-1.6,4.6h-8.3l11.9-28.6c0.6-1.4,1.9-2.3,3.4-2.3h6.8l6.4,30.9H190.7z M181.8,98.2h6.6L186,86.7L181.8,98.2z
		 M148.5,78.3l-6.5,30.9h-7.9l6.5-30.9H148.5z"/>
</g>
</svg>
